HIERARCHY
ROOT root     
{
	OFFSET 0.0000 0.0000 0.0000
	CHANNELS 6 Xposition Yposition Zposition Zrotation Yrotation Xrotation
	JOINT pelvis   
	{
		OFFSET 0.0000 0.0000 0.0000
		CHANNELS 3 Zrotation Yrotation Xrotation
		JOINT thorax   
		{
			OFFSET 0.0000 23.0750 -5.0000
			CHANNELS 3 Zrotation Yrotation Xrotation
			JOINT rclavicle
			{
				OFFSET 0.0000 28.0009 0.0000
				CHANNELS 3 Zrotation Yrotation Xrotation
				JOINT rhumerus 
				{
					OFFSET -18.5725 5.5939 0.0000
					CHANNELS 3 Zrotation Yrotation Xrotation
					JOINT rradius  
					{
						OFFSET -24.8459 0.0000 0.0000
						CHANNELS 3 Zrotation Yrotation Xrotation
						JOINT rhand    
						{
							OFFSET -24.5477 0.0000 0.0000
							CHANNELS 3 Zrotation Yrotation Xrotation
							End Site
							{
								OFFSET -8.1826 0.0000 0.0000
							}
						}
					}
				}
			}
			JOINT lclavicle
			{
				OFFSET 0.0000 28.0009 0.0000
				CHANNELS 3 Zrotation Yrotation Xrotation
				JOINT lhumerus 
				{
					OFFSET 18.5725 5.5939 0.0000
					CHANNELS 3 Zrotation Yrotation Xrotation
					JOINT lradius  
					{
						OFFSET 24.8459 0.0000 0.0000
						CHANNELS 3 Zrotation Yrotation Xrotation
						JOINT lhand    
						{
							OFFSET 24.5477 0.0000 0.0000
							CHANNELS 3 Zrotation Yrotation Xrotation
							End Site
							{
								OFFSET 8.1826 0.0000 0.0000
							}
						}
					}
				}
			}
			JOINT head     
			{
				OFFSET 0.0000 35.2030 0.0000
				CHANNELS 3 Zrotation Yrotation Xrotation
				End Site
				{
					OFFSET 0.0000 11.7343 0.0000
				}
			}
		}
		JOINT rfemur   
		{
			OFFSET -8.2817 0.0000 0.0000
			CHANNELS 3 Zrotation Yrotation Xrotation
			JOINT rtibia   
			{
				OFFSET 0.0000 -43.3627 0.0000
				CHANNELS 3 Zrotation Yrotation Xrotation
				JOINT rfoot    
				{
					OFFSET 0.0000 -38.2947 0.0000
					CHANNELS 3 Zrotation Yrotation Xrotation
					JOINT rtoes    
					{
						OFFSET 0.0000 0.0000 16.6054
						CHANNELS 3 Zrotation Yrotation Xrotation
						End Site
						{
							OFFSET 0.0000 0.0000 5.5351
						}
					}
				}
			}
		}
		JOINT lfemur   
		{
			OFFSET 8.2817 0.0000 0.0000
			CHANNELS 3 Zrotation Yrotation Xrotation
			JOINT ltibia   
			{
				OFFSET 0.0000 -43.3627 0.0000
				CHANNELS 3 Zrotation Yrotation Xrotation
				JOINT lfoot    
				{
					OFFSET 0.0000 -38.2947 0.0000
					CHANNELS 3 Zrotation Yrotation Xrotation
					JOINT ltoes    
					{
						OFFSET 0.0000 0.0000 16.6054
						CHANNELS 3 Zrotation Yrotation Xrotation
						End Site
						{
							OFFSET 0.0000 0.0000 5.5351
						}
					}
				}
			}
		}
	}
}
MOTION
Frames: 11
Frame Time: .0333333
89.5 77.7 10.576 98.2264 -85.9357 -58.4667 0 -0 0 -1.06809 -8.36744 0.688001 25.8601 -8.67966 6.569e-05 59.8912 6.65448 -31.8377 -0 14.9334 -0 -21.9757 16.8774 -3.29993 -20.9686 9.73429 3.08102e-07 -57.2895 1.47862 -24.9966 8.44445e-08 -15.4929 -6.20769e-07 33.1946 -6.83607 -2.03982 3.6142 0.282085 -40.0459 0.331404 -7.99102 -69.9505 -0 -0 55.7126 3.60243e-05 -7.48946 -12.1749 1.58807 -1.68212e-05 -51.5525 -6.42962 0.928164 -69.0203 -0 -0 53.3696 2.95086e-05 13.0316 -12.7061 -2.91426 1.76528e-06 -34.4062 
89.579 77.345 10.634 98.2915 -85.8851 -57.8461 0 -0 0 -1.0327 -8.4122 0.7561 25.8737 -8.91408 1.97025e-05 59.5271 5.48324 -33.0118 -7.70712e-08 14.2171 -6.18008e-07 -22.1334 16.7273 -3.29422 -20.9828 9.97773 2.11059e-05 -56.9572 2.34051 -25.8596 0 -14.3903 0 33.2055 -6.47211 -1.93159 3.57451 0.380875 -40.5339 0.45359 -8.1324 -71.2515 -0 -0 56.7971 -2.20786e-05 -7.39747 -12.5923 1.6214 -1.17124e-05 -51.7022 -6.49735 0.769786 -70.2852 -0 -0 54.4613 7.84689e-06 13.0818 -13.1769 -3.0323 4.08679e-06 -34.2148 
89.659 76.973 10.694 98.311 -85.8336 -57.1821 0 -0 0 -1.00911 -8.46102 0.83851 25.8838 -9.15595 2.13846e-05 59.1662 4.31758 -34.1326 -0 13.5833 -0 -22.3121 16.5891 -3.29367 -20.9892 10.2303 -6.27243e-05 -56.6054 3.18412 -26.7266 0 -13.3354 0 33.2396 -6.13571 -1.83311 3.53682 0.47812 -41.0271 0.560261 -8.2661 -72.5672 -0 -0 57.9148 -1.2963e-05 -7.3236 -13.0181 1.65827 -9.53196e-06 -51.8376 -6.55443 0.588622 -71.5624 -0 -0 55.5757 -6.00346e-05 13.1544 -13.6516 -3.15698 -1.04753e-05 -33.9863 
89.738 76.586 10.754 98.3136 -85.7708 -56.5082 0 -0 0 -0.99679 -8.51031 0.94139 25.8959 -9.40846 -8.51762e-06 58.8079 3.16562 -35.1852 -0 13.025 -0 -22.5132 16.4629 -3.29842 -20.9868 10.4892 6.99512e-05 -56.2322 4.00372 -27.5869 0 -12.3206 0 33.2885 -5.83792 -1.74659 3.50249 0.571402 -41.5231 0.650053 -8.3902 -73.8898 -0 -0 59.0665 -2.97445e-05 -7.26856 -13.4547 1.69993 7.85388e-06 -51.9437 -6.60005 0.38942 -72.8444 -0 -0 56.7176 -8.22278e-06 13.2449 -14.1304 -3.28868 -1.11193e-05 -33.7225 
89.818 76.18 10.816 98.2948 -85.6932 -55.8219 0 -0 0 -0.99461 -8.56747 1.0617 25.8888 -9.62019 3.30772e-05 58.4793 1.98262 -36.2477 -0 12.5488 -0 -22.701 16.3769 -3.30904 -20.9796 10.6967 -1.62808e-05 -55.8535 4.88086 -28.4428 0 -11.405 0 33.3539 -5.52916 -1.65759 3.46951 0.664515 -42.0144 0.717483 -8.50681 -75.2198 -0 -0 60.2553 1.77286e-06 -7.23356 -13.9044 1.74701 7.53554e-06 -52.018 -6.63376 0.168126 -74.129 -0 -0 57.8843 5.31701e-05 13.3555 -14.6148 -3.42815 1.11062e-05 -33.4296 
89.894 75.758 10.878 98.2569 -85.6296 -55.1372 0 -0 0 -1.00211 -8.62098 1.21522 25.8847 -9.85672 -2.87669e-05 58.152 0.849044 -37.2143 -0 12.1155 -0 -22.9229 16.3058 -3.3276 -20.965 10.9371 -3.82759e-05 -55.456 5.6818 -29.2756 0 -10.4913 0 33.4184 -5.29107 -1.58937 3.44269 0.754602 -42.5083 0.766659 -8.60971 -76.5419 -0 -0 61.4725 -2.95287e-05 -7.21664 -14.3716 1.80013 -1.42139e-05 -52.0458 -6.65685 -0.0593027 -75.4078 -0 -0 59.0783 -0.00011162 13.4794 -15.1089 -3.57485 2.81066e-05 -33.114 
89.967 75.319 10.941 98.2006 -85.5525 -54.4526 0 -0 0 -1.01779 -8.67838 1.39729 25.861 -10.0637 2.28896e-05 57.8503 -0.282192 -38.1779 -0 11.7295 -0 -23.138 16.2736 -3.3529 -20.9458 11.1468 4.03565e-05 -55.0565 6.4985 -30.0899 0 -9.64788 0 33.4811 -5.06639 -1.52476 3.41998 0.845985 -42.996 0.794527 -8.70159 -77.8535 -0 -0 62.7209 -1.32519e-05 -7.21732 -14.8579 1.85983 -2.07952e-05 -52.0308 -6.67066 -0.29447 -76.6799 -0 -0 60.3007 -4.63185e-05 13.6144 -15.6129 -3.72938 -2.69019e-05 -32.7893 
90.035 74.864 11.003 98.1601 -85.4796 -53.8096 0 -0 0 -1.04061 -8.73853 1.61022 25.8187 -10.2384 -5.90837e-05 57.5761 -1.40212 -39.1528 -0 11.3759 -0 -23.347 16.28 -3.38546 -20.9231 11.3247 -4.2918e-05 -54.6649 7.33042 -30.8799 0 -8.87618 0 33.5353 -4.85342 -1.46311 3.40213 0.940281 -43.4726 0.802884 -8.78158 -79.1468 -0 -0 63.9951 3.76483e-05 -7.23334 -15.3631 1.92582 4.77938e-06 -51.9758 -6.67712 -0.530128 -77.9379 -0 -0 61.5463 4.38381e-05 13.7582 -16.1267 -3.89072 1.16964e-05 -32.4657 
90.097 74.393 11.063 98.1835 -85.4155 -53.2564 0 -0 0 -1.06762 -8.79161 1.86366 25.7706 -10.4256 2.52636e-05 57.3091 -2.45813 -40.0569 -0 11.0354 -0 -23.583 16.2879 -3.42224 -20.8906 11.5371 -1.92763e-05 -54.2714 8.07213 -31.6441 0 -8.09952 0 33.5703 -4.71976 -1.4244 3.39218 1.03631 -43.9441 0.799292 -8.84292 -80.4144 -0 -0 65.2837 2.52885e-05 -7.26171 -15.888 1.99783 2.56181e-05 -51.8844 -6.6786 -0.750346 -79.1777 -0 -0 62.8181 2.37044e-05 13.9015 -16.6578 -4.05828 -2.03251e-06 -32.1598 
90.151 73.907 11.121 98.2367 -85.3527 -52.7627 0 -0 0 -1.09839 -8.84474 2.14807 25.7022 -10.5767 1.23334e-05 57.0703 -3.48969 -40.989 -0 10.7086 -0 -23.8086 16.3175 -3.46231 -20.8542 11.7198 -9.87087e-05 -53.8955 8.82489 -32.3761 0 -7.39319 0 33.5849 -4.59955 -1.38869 3.38742 1.13818 -44.3958 0.783888 -8.89013 -81.6522 -0 -0 66.5893 -6.18153e-06 -7.30063 -16.4281 2.07497 4.84722e-06 -51.7716 -6.67837 -0.956387 -80.3979 -0 -0 64.1116 6.0904e-06 14.0468 -17.1995 -4.23118 2.65337e-05 -31.882 
90.198 73.407 11.177 98.3422 -85.3056 -52.3513 0 -0 0 -1.13119 -8.89382 2.464 25.6187 -10.706 -4.90302e-05 56.8496 -4.47764 -41.926 -0 10.3883 -0 -24.0291 16.3484 -3.50201 -20.8109 11.8923 8.23561e-05 -53.5427 9.55436 -33.0765 3.57036e-08 -6.73393 -6.06866e-07 33.5784 -4.51154 -1.36183 3.38796 1.2456 -44.8252 0.762785 -8.92044 -82.8566 -0 -0 67.9031 -3.73569e-05 -7.34786 -16.9796 2.15668 -1.11209e-05 -51.6501 -6.67827 -1.1399 -81.592 -0 -0 65.4234 -4.93588e-05 14.1906 -17.7536 -4.40873 -1.53656e-05 -31.6462 
